<mxfile host="app.diagrams.net" modified="2024-04-30T16:57:49.703Z" agent="Mozilla/5.0 (Windows NT 10.0; Win64; x64) AppleWebKit/537.36 (KHTML, like Gecko) Chrome/124.0.0.0 Safari/537.36 Edg/124.0.0.0" etag="XWRWpuJk0y91_xkaeZ30" version="23.1.1" type="device">
  <diagram name="PÃ¡gina-1" id="KIABEcH9nNotkaiVmkSx">
    <mxGraphModel dx="786" dy="505" grid="1" gridSize="10" guides="1" tooltips="1" connect="1" arrows="1" fold="1" page="1" pageScale="1" pageWidth="827" pageHeight="1169" math="0" shadow="0">
      <root>
        <mxCell id="0" />
        <mxCell id="1" parent="0" />
        <mxCell id="S-A6kOTF3eosU_8zP5hK-35" value="RAG (retrieval-augmented-generation)" style="rounded=1;whiteSpace=wrap;html=1;labelPosition=center;verticalLabelPosition=bottom;align=center;verticalAlign=top;strokeColor=#d6b656;fillColor=#fff2cc;fillOpacity=40;arcSize=8;" vertex="1" parent="1">
          <mxGeometry x="60" y="180" width="610" height="280" as="geometry" />
        </mxCell>
        <mxCell id="S-A6kOTF3eosU_8zP5hK-19" value="Retriever" style="rounded=1;whiteSpace=wrap;html=1;labelPosition=center;verticalLabelPosition=bottom;align=center;verticalAlign=top;strokeColor=none;fillColor=#6edbdd;fillOpacity=40;" vertex="1" parent="1">
          <mxGeometry x="190" y="200" width="460" height="110" as="geometry" />
        </mxCell>
        <mxCell id="S-A6kOTF3eosU_8zP5hK-17" value="" style="rounded=1;whiteSpace=wrap;html=1;" vertex="1" parent="1">
          <mxGeometry x="213" y="215" width="217" height="60" as="geometry" />
        </mxCell>
        <mxCell id="S-A6kOTF3eosU_8zP5hK-1" value="Knowledge&lt;br&gt;Base" style="html=1;verticalLabelPosition=bottom;align=center;labelBackgroundColor=#ffffff;verticalAlign=top;strokeWidth=2;strokeColor=#0080F0;shadow=0;dashed=0;shape=mxgraph.ios7.icons.data;" vertex="1" parent="1">
          <mxGeometry x="80" y="70" width="50" height="60" as="geometry" />
        </mxCell>
        <mxCell id="S-A6kOTF3eosU_8zP5hK-5" value="Chunks" style="group;verticalAlign=top;labelPosition=center;verticalLabelPosition=bottom;align=center;" vertex="1" connectable="0" parent="1">
          <mxGeometry x="220" y="70" width="70" height="50" as="geometry" />
        </mxCell>
        <mxCell id="S-A6kOTF3eosU_8zP5hK-2" value="" style="shape=parallelogram;html=1;strokeWidth=2;perimeter=parallelogramPerimeter;whiteSpace=wrap;rounded=1;arcSize=12;size=0.23;" vertex="1" parent="S-A6kOTF3eosU_8zP5hK-5">
          <mxGeometry width="50" height="30" as="geometry" />
        </mxCell>
        <mxCell id="S-A6kOTF3eosU_8zP5hK-3" value="" style="shape=parallelogram;html=1;strokeWidth=2;perimeter=parallelogramPerimeter;whiteSpace=wrap;rounded=1;arcSize=12;size=0.23;" vertex="1" parent="S-A6kOTF3eosU_8zP5hK-5">
          <mxGeometry x="10" y="10" width="50" height="30" as="geometry" />
        </mxCell>
        <mxCell id="S-A6kOTF3eosU_8zP5hK-4" value="" style="shape=parallelogram;html=1;strokeWidth=2;perimeter=parallelogramPerimeter;whiteSpace=wrap;rounded=1;arcSize=12;size=0.23;" vertex="1" parent="S-A6kOTF3eosU_8zP5hK-5">
          <mxGeometry x="20" y="20" width="50" height="30" as="geometry" />
        </mxCell>
        <mxCell id="S-A6kOTF3eosU_8zP5hK-6" value="" style="endArrow=classic;html=1;rounded=0;" edge="1" parent="1">
          <mxGeometry width="50" height="50" relative="1" as="geometry">
            <mxPoint x="150" y="100" as="sourcePoint" />
            <mxPoint x="200" y="100" as="targetPoint" />
          </mxGeometry>
        </mxCell>
        <mxCell id="S-A6kOTF3eosU_8zP5hK-7" value="Embedding" style="sketch=0;outlineConnect=0;fontColor=#232F3E;gradientColor=none;fillColor=#01A88D;strokeColor=none;dashed=0;verticalLabelPosition=bottom;verticalAlign=top;align=center;html=1;fontSize=12;fontStyle=0;aspect=fixed;pointerEvents=1;shape=mxgraph.aws4.sagemaker_model;" vertex="1" parent="1">
          <mxGeometry x="380" y="62" width="68" height="68" as="geometry" />
        </mxCell>
        <mxCell id="S-A6kOTF3eosU_8zP5hK-8" value="" style="endArrow=classic;html=1;rounded=0;" edge="1" parent="1">
          <mxGeometry width="50" height="50" relative="1" as="geometry">
            <mxPoint x="310" y="99.5" as="sourcePoint" />
            <mxPoint x="360" y="99.5" as="targetPoint" />
          </mxGeometry>
        </mxCell>
        <mxCell id="S-A6kOTF3eosU_8zP5hK-9" value="Vector&lt;br&gt;Store" style="html=1;verticalLabelPosition=bottom;align=center;labelBackgroundColor=#ffffff;verticalAlign=top;strokeWidth=2;strokeColor=#512eb2;shadow=0;dashed=0;shape=mxgraph.ios7.icons.data;" vertex="1" parent="1">
          <mxGeometry x="530" y="65" width="50" height="60" as="geometry" />
        </mxCell>
        <mxCell id="S-A6kOTF3eosU_8zP5hK-10" value="" style="endArrow=classic;html=1;rounded=0;" edge="1" parent="1">
          <mxGeometry width="50" height="50" relative="1" as="geometry">
            <mxPoint x="460" y="99.5" as="sourcePoint" />
            <mxPoint x="510" y="99.5" as="targetPoint" />
          </mxGeometry>
        </mxCell>
        <mxCell id="S-A6kOTF3eosU_8zP5hK-11" value="Question" style="shape=umlActor;verticalLabelPosition=bottom;verticalAlign=top;html=1;outlineConnect=0;" vertex="1" parent="1">
          <mxGeometry x="86" y="215" width="30" height="60" as="geometry" />
        </mxCell>
        <mxCell id="S-A6kOTF3eosU_8zP5hK-12" value="" style="endArrow=classic;html=1;rounded=0;" edge="1" parent="1">
          <mxGeometry width="50" height="50" relative="1" as="geometry">
            <mxPoint x="140" y="244.5" as="sourcePoint" />
            <mxPoint x="190" y="244.5" as="targetPoint" />
          </mxGeometry>
        </mxCell>
        <mxCell id="S-A6kOTF3eosU_8zP5hK-13" value="Question Text" style="text;html=1;align=center;verticalAlign=middle;resizable=0;points=[];autosize=1;strokeColor=none;fillColor=none;" vertex="1" parent="1">
          <mxGeometry x="210" y="215" width="100" height="30" as="geometry" />
        </mxCell>
        <mxCell id="S-A6kOTF3eosU_8zP5hK-14" value="" style="endArrow=classic;html=1;rounded=0;" edge="1" parent="1">
          <mxGeometry width="50" height="50" relative="1" as="geometry">
            <mxPoint x="403.5" y="215" as="sourcePoint" />
            <mxPoint x="404" y="160" as="targetPoint" />
          </mxGeometry>
        </mxCell>
        <mxCell id="S-A6kOTF3eosU_8zP5hK-16" value="Question Embedding : [0.88, 0.78, ...]" style="text;html=1;align=center;verticalAlign=middle;resizable=0;points=[];autosize=1;strokeColor=none;fillColor=none;" vertex="1" parent="1">
          <mxGeometry x="213" y="245" width="220" height="30" as="geometry" />
        </mxCell>
        <mxCell id="S-A6kOTF3eosU_8zP5hK-18" value="" style="endArrow=classic;html=1;rounded=0;entryX=0.97;entryY=-0.017;entryDx=0;entryDy=0;entryPerimeter=0;" edge="1" parent="1" target="S-A6kOTF3eosU_8zP5hK-17">
          <mxGeometry width="50" height="50" relative="1" as="geometry">
            <mxPoint x="423" y="160" as="sourcePoint" />
            <mxPoint x="414" y="170" as="targetPoint" />
          </mxGeometry>
        </mxCell>
        <mxCell id="S-A6kOTF3eosU_8zP5hK-20" value="" style="endArrow=classic;html=1;rounded=0;entryX=0.97;entryY=-0.017;entryDx=0;entryDy=0;entryPerimeter=0;" edge="1" parent="1">
          <mxGeometry width="50" height="50" relative="1" as="geometry">
            <mxPoint x="554.5" y="161" as="sourcePoint" />
            <mxPoint x="554.5" y="215" as="targetPoint" />
          </mxGeometry>
        </mxCell>
        <mxCell id="S-A6kOTF3eosU_8zP5hK-25" value="Chunks retrieved" style="group;verticalAlign=top;labelPosition=center;verticalLabelPosition=bottom;align=center;" vertex="1" connectable="0" parent="1">
          <mxGeometry x="520" y="225" width="70" height="50" as="geometry" />
        </mxCell>
        <mxCell id="S-A6kOTF3eosU_8zP5hK-26" value="" style="shape=parallelogram;html=1;strokeWidth=2;perimeter=parallelogramPerimeter;whiteSpace=wrap;rounded=1;arcSize=12;size=0.23;" vertex="1" parent="S-A6kOTF3eosU_8zP5hK-25">
          <mxGeometry width="50" height="30" as="geometry" />
        </mxCell>
        <mxCell id="S-A6kOTF3eosU_8zP5hK-27" value="" style="shape=parallelogram;html=1;strokeWidth=2;perimeter=parallelogramPerimeter;whiteSpace=wrap;rounded=1;arcSize=12;size=0.23;" vertex="1" parent="S-A6kOTF3eosU_8zP5hK-25">
          <mxGeometry x="10" y="10" width="50" height="30" as="geometry" />
        </mxCell>
        <mxCell id="S-A6kOTF3eosU_8zP5hK-28" value="" style="shape=parallelogram;html=1;strokeWidth=2;perimeter=parallelogramPerimeter;whiteSpace=wrap;rounded=1;arcSize=12;size=0.23;" vertex="1" parent="S-A6kOTF3eosU_8zP5hK-25">
          <mxGeometry x="20" y="20" width="50" height="30" as="geometry" />
        </mxCell>
        <mxCell id="S-A6kOTF3eosU_8zP5hK-29" value="" style="endArrow=classic;html=1;rounded=0;entryX=0.97;entryY=-0.017;entryDx=0;entryDy=0;entryPerimeter=0;" edge="1" parent="1">
          <mxGeometry width="50" height="50" relative="1" as="geometry">
            <mxPoint x="554.5" y="300" as="sourcePoint" />
            <mxPoint x="554.5" y="354" as="targetPoint" />
          </mxGeometry>
        </mxCell>
        <mxCell id="S-A6kOTF3eosU_8zP5hK-33" style="edgeStyle=orthogonalEdgeStyle;rounded=0;orthogonalLoop=1;jettySize=auto;html=1;" edge="1" parent="1" source="S-A6kOTF3eosU_8zP5hK-30">
          <mxGeometry relative="1" as="geometry">
            <mxPoint x="100" y="300" as="targetPoint" />
          </mxGeometry>
        </mxCell>
        <mxCell id="S-A6kOTF3eosU_8zP5hK-34" value="Generated Response" style="edgeLabel;html=1;align=center;verticalAlign=middle;resizable=0;points=[];fillOpacity=0;labelBackgroundColor=none;" vertex="1" connectable="0" parent="S-A6kOTF3eosU_8zP5hK-33">
          <mxGeometry x="-0.1309" y="3" relative="1" as="geometry">
            <mxPoint y="-17" as="offset" />
          </mxGeometry>
        </mxCell>
        <mxCell id="S-A6kOTF3eosU_8zP5hK-30" value="LLM" style="sketch=0;outlineConnect=0;fontColor=#232F3E;gradientColor=none;fillColor=#01A88D;strokeColor=none;dashed=0;verticalLabelPosition=bottom;verticalAlign=top;align=center;html=1;fontSize=12;fontStyle=0;aspect=fixed;pointerEvents=1;shape=mxgraph.aws4.sagemaker_model;" vertex="1" parent="1">
          <mxGeometry x="520" y="360" width="68" height="68" as="geometry" />
        </mxCell>
        <mxCell id="S-A6kOTF3eosU_8zP5hK-31" value="+ Question" style="text;html=1;align=center;verticalAlign=middle;resizable=0;points=[];autosize=1;strokeColor=none;fillColor=none;" vertex="1" parent="1">
          <mxGeometry x="560" y="318" width="80" height="30" as="geometry" />
        </mxCell>
      </root>
    </mxGraphModel>
  </diagram>
</mxfile>
